<svg width="24" height="25" viewBox="0 0 24 25" fill="none" xmlns="http://www.w3.org/2000/svg">
<circle cx="12" cy="12.097" r="12" fill="black"/>
<circle cx="12" cy="12.097" r="10.5" fill="black" stroke="white"/>
<path d="M17.92 6.08548L3.7471 11.3803C2.77986 11.7567 2.78545 12.2794 3.56964 12.5125L7.2084 13.6122L15.6274 8.46609C16.0255 8.23144 16.3892 8.35767 16.0903 8.61478L9.26919 14.5787H9.26759L9.26919 14.5795L9.01818 18.2131C9.38589 18.2131 9.54817 18.0497 9.75441 17.8569L11.5218 16.1919L15.1982 18.8226C15.876 19.1843 16.3628 18.9984 16.5315 18.2147L18.9448 7.19602C19.1918 6.23649 18.5667 5.80203 17.92 6.08548Z" fill="white"/>
<path d="M16 15.097L16.5729 17.1047L18.5981 16.597L17.1459 18.097L18.5981 19.597L16.5729 19.0894L16 21.097L15.4271 19.0894L13.4019 19.597L14.8541 18.097L13.4019 16.597L15.4271 17.1047L16 15.097Z" fill="black"/>
<path d="M8 6L8.57295 8.00762L10.5981 7.5L9.1459 9L10.5981 10.5L8.57295 9.99238L8 12L7.42705 9.99238L5.40192 10.5L6.8541 9L5.40192 7.5L7.42705 8.00762L8 6Z" fill="black"/>
</svg>
